HIERARCHY
ROOT joint_Root
{
	OFFSET 0.0 0.0 0.0
	CHANNELS 6 Xposition Yposition Zposition Zrotation Xrotation Yrotation 
	JOINT Hips
	{
		OFFSET 4.5925 91.4895 -427.239
		CHANNELS 6 Xposition Yposition Zposition Zrotation Xrotation Yrotation 
		JOINT Spine
		{
			OFFSET 15.7357 0.0 0.0
			CHANNELS 6 Xposition Yposition Zposition Zrotation Xrotation Yrotation 
			JOINT Chest
			{
				OFFSET 8.98455 -0.406207 0.0
				CHANNELS 6 Xposition Yposition Zposition Zrotation Xrotation Yrotation 
				JOINT Neck
				{
					OFFSET 16.3773 0.0 0.0
					CHANNELS 6 Xposition Yposition Zposition Zrotation Xrotation Yrotation 
					JOINT Head
					{
						OFFSET 6.45672 0.0 0.0
						CHANNELS 6 Xposition Yposition Zposition Zrotation Xrotation Yrotation 
						End Site
						{
							OFFSET 0.0 0.0 0.0
						}
					}
				}
				JOINT Shoulder_L
				{
					OFFSET 12.9942 -0.242716 4.98039
					CHANNELS 6 Xposition Yposition Zposition Zrotation Xrotation Yrotation 
					JOINT UpperArm_L
					{
						OFFSET 5.34809 0.0 0.0
						CHANNELS 6 Xposition Yposition Zposition Zrotation Xrotation Yrotation 
						JOINT LowerArm_L
						{
							OFFSET 24.3286 1.87007e-05 0.0
							CHANNELS 6 Xposition Yposition Zposition Zrotation Xrotation Yrotation 
							JOINT Hand_L
							{
								OFFSET 22.2916 0.0 0.0
								CHANNELS 6 Xposition Yposition Zposition Zrotation Xrotation Yrotation 
								End Site
								{
									OFFSET 0.0 0.0 0.0
								}
							}
						}
					}
				}
				JOINT Shoulder_R
				{
					OFFSET 12.9945 -0.242716 -4.98039
					CHANNELS 6 Xposition Yposition Zposition Zrotation Xrotation Yrotation 
					JOINT UpperArm_R
					{
						OFFSET -5.34813 0.0 0.0
						CHANNELS 6 Xposition Yposition Zposition Zrotation Xrotation Yrotation 
						JOINT LowerArm_R
						{
							OFFSET -24.3289 0.000322201 0.0
							CHANNELS 6 Xposition Yposition Zposition Zrotation Xrotation Yrotation 
							JOINT Hand_R
							{
								OFFSET -22.2915 -0.000108084 0.0
								CHANNELS 6 Xposition Yposition Zposition Zrotation Xrotation Yrotation 
								End Site
								{
									OFFSET 0.0 0.0 0.0
								}
							}
						}
					}
				}
			}
		}
		JOINT UpperLeg_L
		{
			OFFSET -2.19248 -6.46944 0.0
			CHANNELS 6 Xposition Yposition Zposition Zrotation Xrotation Yrotation 
			JOINT LowerLeg_L
			{
				OFFSET 39.0811 0.0 -1.23785e-05
				CHANNELS 6 Xposition Yposition Zposition Zrotation Xrotation Yrotation 
				JOINT Foot_L
				{
					OFFSET 40.9854 0.0 -1.26872e-05
					CHANNELS 6 Xposition Yposition Zposition Zrotation Xrotation Yrotation 
					JOINT Toes_L
					{
						OFFSET 11.7543 0.0 0.0
						CHANNELS 6 Xposition Yposition Zposition Zrotation Xrotation Yrotation 
						End Site
						{
							OFFSET 0.0 0.0 0.0
						}
					}
				}
			}
		}
		JOINT UpperLeg_R
		{
			OFFSET -2.19251 6.46944 0.0
			CHANNELS 6 Xposition Yposition Zposition Zrotation Xrotation Yrotation 
			JOINT LowerLeg_R
			{
				OFFSET -39.0811 -0.00228153 -0.0401928
				CHANNELS 6 Xposition Yposition Zposition Zrotation Xrotation Yrotation 
				JOINT Foot_R
				{
					OFFSET -40.9854 0.0 0.0
					CHANNELS 6 Xposition Yposition Zposition Zrotation Xrotation Yrotation 
					JOINT Toes_R
					{
						OFFSET -11.7543 0.0 0.0
						CHANNELS 6 Xposition Yposition Zposition Zrotation Xrotation Yrotation 
						End Site
						{
							OFFSET 0.0 0.0 0.0
						}
					}
				}
			}
		}
	}
}
MOTION
Frames:	4
Frame Time:	0.0333333
0.000000 0.000000 0.000000 0.000000 0.000000 -0.000000 -2.027860 85.110500 -0.246573 88.331800 -5.253780 8.353660 15.735700 0.000005 -0.000001 81.944700 81.567000 -81.849200 8.984550 -0.406207 -0.000000 8.941160 -2.350200 0.374611 16.377300 -0.000001 -0.000001 -2.024760 0.024628 -0.127066 6.456720 -0.000001 -0.000000 -7.122990 2.937760 -1.284590 12.994200 -0.242716 4.980390 -91.506100 4.817030 -72.614300 5.348090 -0.000007 -0.000001 -57.575800 37.530600 -18.158100 24.328600 0.000019 0.000005 5.737690 12.436700 -25.011400 22.291600 -0.000001 0.000005 15.116800 5.299420 0.088790 12.994500 -0.242716 -4.980390 88.094000 8.888350 -77.845400 -5.348130 -0.000001 -0.000004 -67.207600 1.894720 -15.637300 -24.328900 0.000322 -0.000009 -7.336400 -27.686900 -15.485600 -22.291500 -0.000108 -0.000004 15.569900 5.207450 2.540480 -2.192480 -6.469440 -0.000000 -172.606000 -12.327400 -13.026400 39.081100 -0.000007 -0.000012 -0.457074 0.335537 53.718800 40.985400 -0.000006 -0.000013 -0.600102 3.982480 -81.675400 11.754300 -0.000000 0.000003 -0.000448 -0.003637 -16.711100 -2.192510 6.469440 -0.000001 179.655000 12.228100 166.881000 -39.081100 -0.002282 -0.040193 0.066253 -0.046805 53.398400 -40.985400 0.000008 0.000006 7.959550 3.514830 -82.109500 -11.754300 -0.000006 -0.000006 -0.222654 -0.275412 -16.908500
0.000000 0.000000 0.000000 0.000000 0.000000 -0.000000 -2.641280 85.848600 0.511526 88.139800 -4.141640 8.733210 15.735700 0.000005 -0.000001 80.559500 82.047600 -81.353800 8.984550 -0.406207 -0.000000 7.911840 -2.598760 -1.407340 16.377300 -0.000001 -0.000001 -0.306484 0.334385 -0.634373 6.456720 -0.000001 -0.000000 -6.356070 2.960100 -1.149800 12.994200 -0.242716 4.980390 -91.515800 4.612630 -71.786300 5.348090 -0.000007 -0.000001 -57.680400 35.325800 -18.460000 24.328600 0.000019 0.000005 6.908850 17.511700 -21.936400 22.291600 -0.000001 0.000005 13.983300 5.268650 0.936877 12.994500 -0.242716 -4.980390 88.183000 7.747160 -76.757000 -5.348130 -0.000001 -0.000004 -63.453900 -8.307280 -16.514600 -24.328900 0.000322 -0.000009 -5.385010 -25.384800 -12.398300 -22.291500 -0.000108 -0.000004 13.950600 5.135600 4.284930 -2.192480 -6.469440 -0.000000 -171.462000 -13.091100 -10.806700 39.081100 -0.000007 -0.000012 -0.408026 0.329420 51.085300 40.985400 -0.000006 -0.000013 -0.261342 6.104480 -80.757300 11.754300 -0.000000 0.000003 -0.000460 -0.003715 -16.713800 -2.192510 6.469440 -0.000001 -179.941000 12.595900 169.279000 -39.081100 -0.002282 -0.040193 0.065460 -0.050861 50.733900 -40.985400 0.000008 0.000006 7.752120 2.847700 -81.144700 -11.754300 -0.000006 -0.000006 -0.426112 -0.523819 -17.034000
0.000000 0.000000 0.000000 0.000000 0.000000 -0.000000 -3.207130 87.416900 1.416030 88.119700 -2.302300 8.781390 15.735700 0.000005 -0.000001 75.422800 82.743600 -77.312400 8.984550 -0.406207 -0.000000 6.232260 -3.616940 -3.578730 16.377300 -0.000001 -0.000001 1.940080 0.311371 -1.458170 6.456720 -0.000001 -0.000000 -4.796410 2.723310 -0.370087 12.994200 -0.242716 4.980390 -91.265000 3.695720 -71.088900 5.348090 -0.000007 -0.000001 -59.733600 31.591200 -16.347000 24.328600 0.000019 0.000005 6.707720 19.194300 -19.682800 22.291600 -0.000001 0.000005 14.133300 5.167630 3.515770 12.994500 -0.242716 -4.980390 88.463700 6.097220 -75.828400 -5.348130 -0.000001 -0.000004 -60.061700 -23.926200 -20.297400 -24.328900 0.000322 -0.000009 -6.190950 -29.817200 -12.304600 -22.291500 -0.000108 -0.000004 18.220200 5.023300 6.812120 -2.192480 -6.469440 -0.000000 -171.248000 -11.651800 -7.575500 39.081100 -0.000007 -0.000012 -0.357551 0.354371 45.256700 40.985400 -0.000006 -0.000013 -0.761182 6.648550 -78.254100 11.754300 -0.000000 0.000003 -0.000370 -0.003101 -16.692200 -2.192510 6.469440 -0.000001 -179.947000 13.998600 172.979000 -39.081100 -0.002282 -0.040193 0.062076 -0.058782 45.014700 -40.985400 0.000008 0.000006 7.684860 2.811620 -78.628100 -11.754300 -0.000006 -0.000006 -0.453119 -0.558238 -17.506800
0.000000 0.000000 0.000000 0.000000 0.000000 -0.000000 -3.540660 88.929100 2.067880 87.940600 -1.010610 7.481300 15.735700 0.000005 -0.000001 69.627300 83.887200 -72.192200 8.984550 -0.406207 -0.000000 3.615010 -4.157730 -4.994330 16.377300 -0.000001 -0.000001 4.584020 -0.094324 -2.564320 6.456720 -0.000001 -0.000000 -3.426470 2.417620 0.385113 12.994200 -0.242716 4.980390 -91.004500 2.822920 -70.402900 5.348090 -0.000007 -0.000001 -61.705400 28.977000 -14.349800 24.328600 0.000019 0.000005 5.020640 16.704000 -16.994300 22.291600 -0.000001 0.000005 14.321400 5.162920 3.632460 12.994500 -0.242716 -4.980390 88.917400 4.044090 -74.998600 -5.348130 -0.000001 -0.000004 -55.762700 -37.468500 -28.386300 -24.328900 0.000322 -0.000009 -12.846600 -44.166100 -18.118700 -22.291500 -0.000108 -0.000004 24.470700 5.086140 5.439910 -2.192480 -6.469440 -0.000000 -171.427000 -10.178100 -5.685690 39.081100 -0.000007 -0.000012 -0.310232 0.381792 39.096800 40.985400 -0.000006 -0.000013 -1.397600 6.394190 -75.458500 11.754300 -0.000000 0.000003 -0.000238 -0.002142 -16.657900 -2.192510 6.469440 -0.000001 -179.749000 15.816300 175.074000 -39.081100 -0.002282 -0.040193 0.050524 -0.058134 39.099400 -40.985400 0.000008 0.000006 7.472010 3.950740 -75.386700 -11.754300 -0.000006 -0.000006 -0.768307 -0.934431 -18.082500
